# xmcd
#
# Track frame offsets: 
#        150
#        17621
#        38574
#        62665
#        87899
#        107828
#        128607
#        148348
#        168054
#        191693
#
# Disc length: 2816 seconds
#
# Revision: 0
# Processed by: cddbd v1.5.2PL0 Copyright (c) Steve Scherf et al.
# Submitted via: ExactAudioCopy v1.3
#
DISCID=7c0afe0a
DTITLE=Bluesman Mike and the Blues Review Band - Blues for the Road
DYEAR=2018
DGENRE=Blues
TTITLE0=I Love Money
TTITLE1=Who Is He
TTITLE2=Out on a Limb
TTITLE3=Goin' Down Slow
TTITLE4=Leaving Here Walking
TTITLE5=Do You Know How to Boogie?
TTITLE6=Bad Luck Were Money
TTITLE7=Stop the Train
TTITLE8=I'm a Bluesman
TTITLE9=I Should Have Left You
EXTD=
EXTT0=
EXTT1=
EXTT2=
EXTT3=
EXTT4=
EXTT5=
EXTT6=
EXTT7=
EXTT8=
EXTT9=
PLAYORDER=
